<?xml version="1.0" encoding="UTF-8"?>
<svg xmlns="http://www.w3.org/2000/svg" xmlns:xlink="http://www.w3.org/1999/xlink" width="600" height="400" viewBox="0 0 2400 1600">
<defs>
  <clipPath id="clip200">
    <rect x="0" y="0" width="2400" height="1600"/>
  </clipPath>
</defs>
<path clip-path="url(#clip200)" d=" M0 1600 L2400 1600 L2400 0 L0 0  Z   " fill="#ffffff" fill-rule="evenodd" fill-opacity="1"/>
<defs>
  <clipPath id="clip201">
    <rect x="480" y="0" width="1681" height="1600"/>
  </clipPath>
</defs>
<path clip-path="url(#clip200)" d=" M276.876 1423.18 L2352.76 1423.18 L2352.76 123.472 L276.876 123.472  Z   " fill="#ffffff" fill-rule="evenodd" fill-opacity="1"/>
<defs>
  <clipPath id="clip202">
    <rect x="276" y="123" width="2077" height="1301"/>
  </clipPath>
</defs>
<polyline clip-path="url(#clip202)" style="stroke:#000000; stroke-linecap:butt; stroke-linejoin:round; stroke-width:2; stroke-opacity:0.1; fill:none" points="   285.412,1423.18 285.412,123.472    "/>
<polyline clip-path="url(#clip202)" style="stroke:#000000; stroke-linecap:butt; stroke-linejoin:round; stroke-width:2; stroke-opacity:0.1; fill:none" points="   787.56,1423.18 787.56,123.472    "/>
<polyline clip-path="url(#clip202)" style="stroke:#000000; stroke-linecap:butt; stroke-linejoin:round; stroke-width:2; stroke-opacity:0.1; fill:none" points="   1289.71,1423.18 1289.71,123.472    "/>
<polyline clip-path="url(#clip202)" style="stroke:#000000; stroke-linecap:butt; stroke-linejoin:round; stroke-width:2; stroke-opacity:0.1; fill:none" points="   1791.86,1423.18 1791.86,123.472    "/>
<polyline clip-path="url(#clip202)" style="stroke:#000000; stroke-linecap:butt; stroke-linejoin:round; stroke-width:2; stroke-opacity:0.1; fill:none" points="   2294,1423.18 2294,123.472    "/>
<polyline clip-path="url(#clip200)" style="stroke:#000000; stroke-linecap:butt; stroke-linejoin:round; stroke-width:4; stroke-opacity:1; fill:none" points="   276.876,1423.18 2352.76,1423.18    "/>
<polyline clip-path="url(#clip200)" style="stroke:#000000; stroke-linecap:butt; stroke-linejoin:round; stroke-width:4; stroke-opacity:1; fill:none" points="   285.412,1423.18 285.412,1404.28    "/>
<polyline clip-path="url(#clip200)" style="stroke:#000000; stroke-linecap:butt; stroke-linejoin:round; stroke-width:4; stroke-opacity:1; fill:none" points="   787.56,1423.18 787.56,1404.28    "/>
<polyline clip-path="url(#clip200)" style="stroke:#000000; stroke-linecap:butt; stroke-linejoin:round; stroke-width:4; stroke-opacity:1; fill:none" points="   1289.71,1423.18 1289.71,1404.28    "/>
<polyline clip-path="url(#clip200)" style="stroke:#000000; stroke-linecap:butt; stroke-linejoin:round; stroke-width:4; stroke-opacity:1; fill:none" points="   1791.86,1423.18 1791.86,1404.28    "/>
<polyline clip-path="url(#clip200)" style="stroke:#000000; stroke-linecap:butt; stroke-linejoin:round; stroke-width:4; stroke-opacity:1; fill:none" points="   2294,1423.18 2294,1404.28    "/>
<path clip-path="url(#clip200)" d="M285.412 1454.1 Q281.801 1454.1 279.972 1457.66 Q278.167 1461.2 278.167 1468.33 Q278.167 1475.44 279.972 1479.01 Q281.801 1482.55 285.412 1482.55 Q289.046 1482.55 290.852 1479.01 Q292.681 1475.44 292.681 1468.33 Q292.681 1461.2 290.852 1457.66 Q289.046 1454.1 285.412 1454.1 M285.412 1450.39 Q291.222 1450.39 294.278 1455 Q297.356 1459.58 297.356 1468.33 Q297.356 1477.06 294.278 1481.67 Q291.222 1486.25 285.412 1486.25 Q279.602 1486.25 276.523 1481.67 Q273.468 1477.06 273.468 1468.33 Q273.468 1459.58 276.523 1455 Q279.602 1450.39 285.412 1450.39 Z" fill="#000000" fill-rule="evenodd" fill-opacity="1"/><path clip-path="url(#clip200)" d="M762.248 1481.64 L769.887 1481.64 L769.887 1455.28 L761.577 1456.95 L761.577 1452.69 L769.84 1451.02 L774.516 1451.02 L774.516 1481.64 L782.155 1481.64 L782.155 1485.58 L762.248 1485.58 L762.248 1481.64 Z" fill="#000000" fill-rule="evenodd" fill-opacity="1"/><path clip-path="url(#clip200)" d="M801.599 1454.1 Q797.988 1454.1 796.16 1457.66 Q794.354 1461.2 794.354 1468.33 Q794.354 1475.44 796.16 1479.01 Q797.988 1482.55 801.599 1482.55 Q805.234 1482.55 807.039 1479.01 Q808.868 1475.44 808.868 1468.33 Q808.868 1461.2 807.039 1457.66 Q805.234 1454.1 801.599 1454.1 M801.599 1450.39 Q807.41 1450.39 810.465 1455 Q813.544 1459.58 813.544 1468.33 Q813.544 1477.06 810.465 1481.67 Q807.41 1486.25 801.599 1486.25 Q795.789 1486.25 792.711 1481.67 Q789.655 1477.06 789.655 1468.33 Q789.655 1459.58 792.711 1455 Q795.789 1450.39 801.599 1450.39 Z" fill="#000000" fill-rule="evenodd" fill-opacity="1"/><path clip-path="url(#clip200)" d="M1268.48 1481.64 L1284.8 1481.64 L1284.8 1485.58 L1262.86 1485.58 L1262.86 1481.64 Q1265.52 1478.89 1270.1 1474.26 Q1274.71 1469.61 1275.89 1468.27 Q1278.13 1465.74 1279.01 1464.01 Q1279.92 1462.25 1279.92 1460.56 Q1279.92 1457.8 1277.97 1456.07 Q1276.05 1454.33 1272.95 1454.33 Q1270.75 1454.33 1268.3 1455.09 Q1265.87 1455.86 1263.09 1457.41 L1263.09 1452.69 Q1265.91 1451.55 1268.37 1450.97 Q1270.82 1450.39 1272.86 1450.39 Q1278.23 1450.39 1281.42 1453.08 Q1284.62 1455.77 1284.62 1460.26 Q1284.62 1462.39 1283.81 1464.31 Q1283.02 1466.2 1280.91 1468.8 Q1280.33 1469.47 1277.23 1472.69 Q1274.13 1475.88 1268.48 1481.64 Z" fill="#000000" fill-rule="evenodd" fill-opacity="1"/><path clip-path="url(#clip200)" d="M1304.62 1454.1 Q1301 1454.1 1299.18 1457.66 Q1297.37 1461.2 1297.37 1468.33 Q1297.37 1475.44 1299.18 1479.01 Q1301 1482.55 1304.62 1482.55 Q1308.25 1482.55 1310.06 1479.01 Q1311.88 1475.44 1311.88 1468.33 Q1311.88 1461.2 1310.06 1457.66 Q1308.25 1454.1 1304.62 1454.1 M1304.62 1450.39 Q1310.43 1450.39 1313.48 1455 Q1316.56 1459.58 1316.56 1468.33 Q1316.56 1477.06 1313.48 1481.67 Q1310.43 1486.25 1304.62 1486.25 Q1298.81 1486.25 1295.73 1481.67 Q1292.67 1477.06 1292.67 1468.33 Q1292.67 1459.58 1295.73 1455 Q1298.81 1450.39 1304.62 1450.39 Z" fill="#000000" fill-rule="evenodd" fill-opacity="1"/><path clip-path="url(#clip200)" d="M1780.7 1466.95 Q1784.06 1467.66 1785.93 1469.93 Q1787.83 1472.2 1787.83 1475.53 Q1787.83 1480.65 1784.31 1483.45 Q1780.79 1486.25 1774.31 1486.25 Q1772.13 1486.25 1769.82 1485.81 Q1767.53 1485.39 1765.07 1484.54 L1765.07 1480.02 Q1767.02 1481.16 1769.33 1481.74 Q1771.65 1482.32 1774.17 1482.32 Q1778.57 1482.32 1780.86 1480.58 Q1783.18 1478.84 1783.18 1475.53 Q1783.18 1472.48 1781.02 1470.77 Q1778.89 1469.03 1775.07 1469.03 L1771.05 1469.03 L1771.05 1465.19 L1775.26 1465.19 Q1778.71 1465.19 1780.54 1463.82 Q1782.37 1462.43 1782.37 1459.84 Q1782.37 1457.18 1780.47 1455.77 Q1778.59 1454.33 1775.07 1454.33 Q1773.15 1454.33 1770.95 1454.75 Q1768.75 1455.16 1766.12 1456.04 L1766.12 1451.88 Q1768.78 1451.14 1771.09 1450.77 Q1773.43 1450.39 1775.49 1450.39 Q1780.81 1450.39 1783.92 1452.83 Q1787.02 1455.23 1787.02 1459.35 Q1787.02 1462.22 1785.37 1464.21 Q1783.73 1466.18 1780.7 1466.95 Z" fill="#000000" fill-rule="evenodd" fill-opacity="1"/><path clip-path="url(#clip200)" d="M1806.69 1454.1 Q1803.08 1454.1 1801.25 1457.66 Q1799.45 1461.2 1799.45 1468.33 Q1799.45 1475.44 1801.25 1479.01 Q1803.08 1482.55 1806.69 1482.55 Q1810.33 1482.55 1812.13 1479.01 Q1813.96 1475.44 1813.96 1468.33 Q1813.96 1461.2 1812.13 1457.66 Q1810.33 1454.1 1806.69 1454.1 M1806.69 1450.39 Q1812.5 1450.39 1815.56 1455 Q1818.64 1459.58 1818.64 1468.33 Q1818.64 1477.06 1815.56 1481.67 Q1812.5 1486.25 1806.69 1486.25 Q1800.88 1486.25 1797.81 1481.67 Q1794.75 1477.06 1794.75 1468.33 Q1794.75 1459.58 1797.81 1455 Q1800.88 1450.39 1806.69 1450.39 Z" fill="#000000" fill-rule="evenodd" fill-opacity="1"/><path clip-path="url(#clip200)" d="M2282.18 1455.09 L2270.37 1473.54 L2282.18 1473.54 L2282.18 1455.09 M2280.95 1451.02 L2286.83 1451.02 L2286.83 1473.54 L2291.76 1473.54 L2291.76 1477.43 L2286.83 1477.43 L2286.83 1485.58 L2282.18 1485.58 L2282.18 1477.43 L2266.57 1477.43 L2266.57 1472.92 L2280.95 1451.02 Z" fill="#000000" fill-rule="evenodd" fill-opacity="1"/><path clip-path="url(#clip200)" d="M2309.49 1454.1 Q2305.88 1454.1 2304.05 1457.66 Q2302.25 1461.2 2302.25 1468.33 Q2302.25 1475.44 2304.05 1479.01 Q2305.88 1482.55 2309.49 1482.55 Q2313.12 1482.55 2314.93 1479.01 Q2316.76 1475.44 2316.76 1468.33 Q2316.76 1461.2 2314.93 1457.66 Q2313.12 1454.1 2309.49 1454.1 M2309.49 1450.39 Q2315.3 1450.39 2318.36 1455 Q2321.43 1459.58 2321.43 1468.33 Q2321.43 1477.06 2318.36 1481.67 Q2315.3 1486.25 2309.49 1486.25 Q2303.68 1486.25 2300.6 1481.67 Q2297.55 1477.06 2297.55 1468.33 Q2297.55 1459.58 2300.6 1455 Q2303.68 1450.39 2309.49 1450.39 Z" fill="#000000" fill-rule="evenodd" fill-opacity="1"/><path clip-path="url(#clip200)" d="M1299 1518.52 L1304.89 1518.52 L1304.89 1547.77 L1322.36 1532.4 L1329.84 1532.4 L1310.93 1549.07 L1330.63 1568.04 L1323 1568.04 L1304.89 1550.63 L1304.89 1568.04 L1299 1568.04 L1299 1518.52 Z" fill="#000000" fill-rule="evenodd" fill-opacity="1"/><polyline clip-path="url(#clip202)" style="stroke:#000000; stroke-linecap:butt; stroke-linejoin:round; stroke-width:2; stroke-opacity:0.1; fill:none" points="   276.876,1388.1 2352.76,1388.1    "/>
<polyline clip-path="url(#clip202)" style="stroke:#000000; stroke-linecap:butt; stroke-linejoin:round; stroke-width:2; stroke-opacity:0.1; fill:none" points="   276.876,589.701 2352.76,589.701    "/>
<polyline clip-path="url(#clip200)" style="stroke:#000000; stroke-linecap:butt; stroke-linejoin:round; stroke-width:4; stroke-opacity:1; fill:none" points="   276.876,1423.18 276.876,123.472    "/>
<polyline clip-path="url(#clip200)" style="stroke:#000000; stroke-linecap:butt; stroke-linejoin:round; stroke-width:4; stroke-opacity:1; fill:none" points="   276.876,1388.1 295.773,1388.1    "/>
<polyline clip-path="url(#clip200)" style="stroke:#000000; stroke-linecap:butt; stroke-linejoin:round; stroke-width:4; stroke-opacity:1; fill:none" points="   276.876,589.701 295.773,589.701    "/>
<path clip-path="url(#clip200)" d="M114.931 1407.89 L122.57 1407.89 L122.57 1381.52 L114.26 1383.19 L114.26 1378.93 L122.524 1377.27 L127.2 1377.27 L127.2 1407.89 L134.839 1407.89 L134.839 1411.83 L114.931 1411.83 L114.931 1407.89 Z" fill="#000000" fill-rule="evenodd" fill-opacity="1"/><path clip-path="url(#clip200)" d="M154.283 1380.34 Q150.672 1380.34 148.843 1383.91 Q147.038 1387.45 147.038 1394.58 Q147.038 1401.69 148.843 1405.25 Q150.672 1408.79 154.283 1408.79 Q157.917 1408.79 159.723 1405.25 Q161.552 1401.69 161.552 1394.58 Q161.552 1387.45 159.723 1383.91 Q157.917 1380.34 154.283 1380.34 M154.283 1376.64 Q160.093 1376.64 163.149 1381.25 Q166.227 1385.83 166.227 1394.58 Q166.227 1403.31 163.149 1407.91 Q160.093 1412.5 154.283 1412.5 Q148.473 1412.5 145.394 1407.91 Q142.339 1403.31 142.339 1394.58 Q142.339 1385.83 145.394 1381.25 Q148.473 1376.64 154.283 1376.64 Z" fill="#000000" fill-rule="evenodd" fill-opacity="1"/><path clip-path="url(#clip200)" d="M166.227 1370.74 L190.339 1370.74 L190.339 1373.94 L166.227 1373.94 L166.227 1370.74 Z" fill="#000000" fill-rule="evenodd" fill-opacity="1"/><path clip-path="url(#clip200)" d="M201.812 1381.22 L215.071 1381.22 L215.071 1384.42 L197.241 1384.42 L197.241 1381.22 Q199.404 1378.98 203.128 1375.22 Q206.871 1371.44 207.83 1370.35 Q209.655 1368.3 210.369 1366.89 Q211.103 1365.46 211.103 1364.08 Q211.103 1361.85 209.523 1360.44 Q207.962 1359.02 205.442 1359.02 Q203.655 1359.02 201.661 1359.65 Q199.686 1360.27 197.43 1361.53 L197.43 1357.69 Q199.724 1356.77 201.718 1356.3 Q203.711 1355.83 205.366 1355.83 Q209.73 1355.83 212.325 1358.01 Q214.921 1360.19 214.921 1363.84 Q214.921 1365.57 214.263 1367.13 Q213.623 1368.67 211.912 1370.78 Q211.441 1371.32 208.921 1373.94 Q206.401 1376.53 201.812 1381.22 Z" fill="#000000" fill-rule="evenodd" fill-opacity="1"/><path clip-path="url(#clip200)" d="M231.171 1358.84 Q228.237 1358.84 226.751 1361.73 Q225.284 1364.61 225.284 1370.4 Q225.284 1376.18 226.751 1379.07 Q228.237 1381.95 231.171 1381.95 Q234.124 1381.95 235.591 1379.07 Q237.076 1376.18 237.076 1370.4 Q237.076 1364.61 235.591 1361.73 Q234.124 1358.84 231.171 1358.84 M231.171 1355.83 Q235.891 1355.83 238.374 1359.57 Q240.876 1363.29 240.876 1370.4 Q240.876 1377.49 238.374 1381.24 Q235.891 1384.96 231.171 1384.96 Q226.45 1384.96 223.949 1381.24 Q221.466 1377.49 221.466 1370.4 Q221.466 1363.29 223.949 1359.57 Q226.45 1355.83 231.171 1355.83 Z" fill="#000000" fill-rule="evenodd" fill-opacity="1"/><path clip-path="url(#clip200)" d="M114.931 609.494 L122.57 609.494 L122.57 583.128 L114.26 584.795 L114.26 580.535 L122.524 578.869 L127.2 578.869 L127.2 609.494 L134.839 609.494 L134.839 613.429 L114.931 613.429 L114.931 609.494 Z" fill="#000000" fill-rule="evenodd" fill-opacity="1"/><path clip-path="url(#clip200)" d="M154.283 581.947 Q150.672 581.947 148.843 585.512 Q147.038 589.054 147.038 596.183 Q147.038 603.29 148.843 606.855 Q150.672 610.396 154.283 610.396 Q157.917 610.396 159.723 606.855 Q161.552 603.29 161.552 596.183 Q161.552 589.054 159.723 585.512 Q157.917 581.947 154.283 581.947 M154.283 578.244 Q160.093 578.244 163.149 582.85 Q166.227 587.434 166.227 596.183 Q166.227 604.91 163.149 609.517 Q160.093 614.1 154.283 614.1 Q148.473 614.1 145.394 609.517 Q142.339 604.91 142.339 596.183 Q142.339 587.434 145.394 582.85 Q148.473 578.244 154.283 578.244 Z" fill="#000000" fill-rule="evenodd" fill-opacity="1"/><path clip-path="url(#clip200)" d="M166.227 572.345 L190.339 572.345 L190.339 575.542 L166.227 575.542 L166.227 572.345 Z" fill="#000000" fill-rule="evenodd" fill-opacity="1"/><path clip-path="url(#clip200)" d="M199.197 582.821 L205.404 582.821 L205.404 561.399 L198.652 562.753 L198.652 559.293 L205.366 557.938 L209.166 557.938 L209.166 582.821 L215.372 582.821 L215.372 586.018 L199.197 586.018 L199.197 582.821 Z" fill="#000000" fill-rule="evenodd" fill-opacity="1"/><path clip-path="url(#clip200)" d="M231.171 560.44 Q228.237 560.44 226.751 563.336 Q225.284 566.214 225.284 572.007 Q225.284 577.781 226.751 580.677 Q228.237 583.555 231.171 583.555 Q234.124 583.555 235.591 580.677 Q237.076 577.781 237.076 572.007 Q237.076 566.214 235.591 563.336 Q234.124 560.44 231.171 560.44 M231.171 557.431 Q235.891 557.431 238.374 561.173 Q240.876 564.897 240.876 572.007 Q240.876 579.097 238.374 582.84 Q235.891 586.564 231.171 586.564 Q226.45 586.564 223.949 582.84 Q221.466 579.097 221.466 572.007 Q221.466 564.897 223.949 561.173 Q226.45 557.431 231.171 557.431 Z" fill="#000000" fill-rule="evenodd" fill-opacity="1"/><path clip-path="url(#clip200)" d="M44.7161 817.393 L47.5806 817.393 L47.5806 844.32 Q53.6281 843.938 56.8109 840.691 Q59.9619 837.413 59.9619 831.588 Q59.9619 828.214 59.1344 825.063 Q58.3069 821.88 56.6518 818.761 L62.1899 818.761 Q63.5267 821.912 64.227 825.222 Q64.9272 828.533 64.9272 831.938 Q64.9272 840.468 59.9619 845.465 Q54.9967 850.431 46.5303 850.431 Q37.7774 850.431 32.6531 845.72 Q27.4968 840.978 27.4968 832.957 Q27.4968 825.763 32.1438 821.594 Q36.7589 817.393 44.7161 817.393 M42.9973 823.249 Q38.1912 823.313 35.3266 825.954 Q32.4621 828.564 32.4621 832.893 Q32.4621 837.795 35.2312 840.755 Q38.0002 843.683 43.0292 844.129 L42.9973 823.249 Z" fill="#000000" fill-rule="evenodd" fill-opacity="1"/><path clip-path="url(#clip200)" d="M33.8307 787.124 Q33.2578 788.11 33.0032 789.288 Q32.7167 790.434 32.7167 791.834 Q32.7167 796.8 35.9632 799.473 Q39.1779 802.115 45.2253 802.115 L64.0042 802.115 L64.0042 808.003 L28.3562 808.003 L28.3562 802.115 L33.8944 802.115 Q30.6479 800.269 29.0883 797.309 Q27.4968 794.349 27.4968 790.116 Q27.4968 789.511 27.5923 788.779 Q27.656 788.047 27.8151 787.155 L33.8307 787.124 Z" fill="#000000" fill-rule="evenodd" fill-opacity="1"/><path clip-path="url(#clip200)" d="M33.8307 761.47 Q33.2578 762.457 33.0032 763.634 Q32.7167 764.78 32.7167 766.18 Q32.7167 771.146 35.9632 773.819 Q39.1779 776.461 45.2253 776.461 L64.0042 776.461 L64.0042 782.349 L28.3562 782.349 L28.3562 776.461 L33.8944 776.461 Q30.6479 774.615 29.0883 771.655 Q27.4968 768.695 27.4968 764.462 Q27.4968 763.857 27.5923 763.125 Q27.656 762.393 27.8151 761.502 L33.8307 761.47 Z" fill="#000000" fill-rule="evenodd" fill-opacity="1"/><path clip-path="url(#clip200)" d="M32.4621 742.946 Q32.4621 747.656 36.1542 750.394 Q39.8145 753.131 46.212 753.131 Q52.6095 753.131 56.3017 750.425 Q59.9619 747.688 59.9619 742.946 Q59.9619 738.267 56.2698 735.53 Q52.5777 732.792 46.212 732.792 Q39.8781 732.792 36.186 735.53 Q32.4621 738.267 32.4621 742.946 M27.4968 742.946 Q27.4968 735.307 32.4621 730.946 Q37.4273 726.586 46.212 726.586 Q54.9649 726.586 59.9619 730.946 Q64.9272 735.307 64.9272 742.946 Q64.9272 750.616 59.9619 754.977 Q54.9649 759.306 46.212 759.306 Q37.4273 759.306 32.4621 754.977 Q27.4968 750.616 27.4968 742.946 Z" fill="#000000" fill-rule="evenodd" fill-opacity="1"/><path clip-path="url(#clip200)" d="M33.8307 696.221 Q33.2578 697.208 33.0032 698.386 Q32.7167 699.532 32.7167 700.932 Q32.7167 705.897 35.9632 708.571 Q39.1779 711.213 45.2253 711.213 L64.0042 711.213 L64.0042 717.101 L28.3562 717.101 L28.3562 711.213 L33.8944 711.213 Q30.6479 709.367 29.0883 706.406 Q27.4968 703.446 27.4968 699.213 Q27.4968 698.609 27.5923 697.876 Q27.656 697.144 27.8151 696.253 L33.8307 696.221 Z" fill="#000000" fill-rule="evenodd" fill-opacity="1"/><path clip-path="url(#clip200)" d="M447.396 28.9478 L447.396 35.9153 Q444.236 34.1734 441.036 33.3227 Q437.876 32.4315 434.635 32.4315 Q427.384 32.4315 423.374 37.0496 Q419.363 41.6271 419.363 49.9314 Q419.363 58.2358 423.374 62.8538 Q427.384 67.4314 434.635 67.4314 Q437.876 67.4314 441.036 66.5807 Q444.236 65.6895 447.396 63.9476 L447.396 70.8341 Q444.276 72.2924 440.914 73.0216 Q437.592 73.7508 433.825 73.7508 Q423.576 73.7508 417.54 67.3098 Q411.505 60.8689 411.505 49.9314 Q411.505 38.832 417.581 32.472 Q423.698 26.1121 434.311 26.1121 Q437.754 26.1121 441.036 26.8413 Q444.317 27.5299 447.396 28.9478 Z" fill="#000000" fill-rule="evenodd" fill-opacity="1"/><path clip-path="url(#clip200)" d="M477.939 32.4315 Q471.944 32.4315 468.46 37.1306 Q464.977 41.7891 464.977 49.9314 Q464.977 58.0738 468.42 62.7728 Q471.904 67.4314 477.939 67.4314 Q483.894 67.4314 487.378 62.7323 Q490.862 58.0333 490.862 49.9314 Q490.862 41.8701 487.378 37.1711 Q483.894 32.4315 477.939 32.4315 M477.939 26.1121 Q487.662 26.1121 493.211 32.4315 Q498.761 38.7509 498.761 49.9314 Q498.761 61.0714 493.211 67.4314 Q487.662 73.7508 477.939 73.7508 Q468.177 73.7508 462.627 67.4314 Q457.118 61.0714 457.118 49.9314 Q457.118 38.7509 462.627 32.4315 Q468.177 26.1121 477.939 26.1121 Z" fill="#000000" fill-rule="evenodd" fill-opacity="1"/><path clip-path="url(#clip200)" d="M548.83 45.1919 L548.83 72.576 L541.377 72.576 L541.377 45.4349 Q541.377 38.994 538.865 35.7938 Q536.353 32.5936 531.33 32.5936 Q525.294 32.5936 521.811 36.4419 Q518.327 40.2903 518.327 46.9338 L518.327 72.576 L510.833 72.576 L510.833 27.2059 L518.327 27.2059 L518.327 34.2544 Q521.001 30.163 524.606 28.1376 Q528.252 26.1121 532.991 26.1121 Q540.809 26.1121 544.82 30.9732 Q548.83 35.7938 548.83 45.1919 Z" fill="#000000" fill-rule="evenodd" fill-opacity="1"/><path clip-path="url(#clip200)" d="M558.35 27.2059 L566.249 27.2059 L580.427 65.2844 L594.605 27.2059 L602.505 27.2059 L585.491 72.576 L575.364 72.576 L558.35 27.2059 Z" fill="#000000" fill-rule="evenodd" fill-opacity="1"/><path clip-path="url(#clip200)" d="M651.602 48.0275 L651.602 51.6733 L617.331 51.6733 Q617.817 59.3701 621.949 63.421 Q626.121 67.4314 633.535 67.4314 Q637.829 67.4314 641.839 66.3781 Q645.89 65.3249 649.86 63.2184 L649.86 70.267 Q645.849 71.9684 641.636 72.8596 Q637.424 73.7508 633.089 73.7508 Q622.233 73.7508 615.873 67.4314 Q609.553 61.1119 609.553 50.3365 Q609.553 39.1965 615.549 32.6746 Q621.584 26.1121 631.793 26.1121 Q640.948 26.1121 646.254 32.0264 Q651.602 37.9003 651.602 48.0275 M644.148 45.84 Q644.067 39.7232 640.705 36.0774 Q637.383 32.4315 631.874 32.4315 Q625.635 32.4315 621.868 35.9558 Q618.141 39.4801 617.574 45.8805 L644.148 45.84 Z" fill="#000000" fill-rule="evenodd" fill-opacity="1"/><path clip-path="url(#clip200)" d="M690.126 34.1734 Q688.87 33.4443 687.371 33.1202 Q685.913 32.7556 684.13 32.7556 Q677.811 32.7556 674.408 36.8875 Q671.046 40.9789 671.046 48.6757 L671.046 72.576 L663.552 72.576 L663.552 27.2059 L671.046 27.2059 L671.046 34.2544 Q673.396 30.1225 677.163 28.1376 Q680.93 26.1121 686.318 26.1121 Q687.088 26.1121 688.019 26.2337 Q688.951 26.3147 690.085 26.5172 L690.126 34.1734 Z" fill="#000000" fill-rule="evenodd" fill-opacity="1"/><path clip-path="url(#clip200)" d="M726.341 49.3643 Q726.341 41.2625 722.979 36.8065 Q719.657 32.3505 713.621 32.3505 Q707.626 32.3505 704.263 36.8065 Q700.942 41.2625 700.942 49.3643 Q700.942 57.4256 704.263 61.8816 Q707.626 66.3376 713.621 66.3376 Q719.657 66.3376 722.979 61.8816 Q726.341 57.4256 726.341 49.3643 M733.795 66.9452 Q733.795 78.5308 728.65 84.1616 Q723.505 89.8329 712.892 89.8329 Q708.962 89.8329 705.479 89.2252 Q701.995 88.6581 698.714 87.4428 L698.714 80.1917 Q701.995 81.9741 705.195 82.8248 Q708.395 83.6755 711.717 83.6755 Q719.049 83.6755 722.695 79.8271 Q726.341 76.0193 726.341 68.282 L726.341 64.5957 Q724.032 68.6061 720.427 70.5911 Q716.821 72.576 711.798 72.576 Q703.453 72.576 698.349 66.2161 Q693.245 59.8562 693.245 49.3643 Q693.245 38.832 698.349 32.472 Q703.453 26.1121 711.798 26.1121 Q716.821 26.1121 720.427 28.0971 Q724.032 30.082 726.341 34.0924 L726.341 27.2059 L733.795 27.2059 L733.795 66.9452 Z" fill="#000000" fill-rule="evenodd" fill-opacity="1"/><path clip-path="url(#clip200)" d="M787.955 48.0275 L787.955 51.6733 L753.684 51.6733 Q754.171 59.3701 758.302 63.421 Q762.475 67.4314 769.888 67.4314 Q774.182 67.4314 778.192 66.3781 Q782.243 65.3249 786.213 63.2184 L786.213 70.267 Q782.203 71.9684 777.99 72.8596 Q773.777 73.7508 769.442 73.7508 Q758.586 73.7508 752.226 67.4314 Q745.907 61.1119 745.907 50.3365 Q745.907 39.1965 751.902 32.6746 Q757.938 26.1121 768.146 26.1121 Q777.301 26.1121 782.608 32.0264 Q787.955 37.9003 787.955 48.0275 M780.501 45.84 Q780.42 39.7232 777.058 36.0774 Q773.736 32.4315 768.227 32.4315 Q761.989 32.4315 758.221 35.9558 Q754.495 39.4801 753.928 45.8805 L780.501 45.84 Z" fill="#000000" fill-rule="evenodd" fill-opacity="1"/><path clip-path="url(#clip200)" d="M837.903 45.1919 L837.903 72.576 L830.449 72.576 L830.449 45.4349 Q830.449 38.994 827.938 35.7938 Q825.426 32.5936 820.403 32.5936 Q814.367 32.5936 810.883 36.4419 Q807.399 40.2903 807.399 46.9338 L807.399 72.576 L799.905 72.576 L799.905 27.2059 L807.399 27.2059 L807.399 34.2544 Q810.073 30.163 813.678 28.1376 Q817.324 26.1121 822.064 26.1121 Q829.882 26.1121 833.892 30.9732 Q837.903 35.7938 837.903 45.1919 Z" fill="#000000" fill-rule="evenodd" fill-opacity="1"/><path clip-path="url(#clip200)" d="M885.42 28.9478 L885.42 35.9153 Q882.26 34.1734 879.06 33.3227 Q875.9 32.4315 872.66 32.4315 Q865.408 32.4315 861.398 37.0496 Q857.388 41.6271 857.388 49.9314 Q857.388 58.2358 861.398 62.8538 Q865.408 67.4314 872.66 67.4314 Q875.9 67.4314 879.06 66.5807 Q882.26 65.6895 885.42 63.9476 L885.42 70.8341 Q882.301 72.2924 878.938 73.0216 Q875.617 73.7508 871.849 73.7508 Q861.601 73.7508 855.565 67.3098 Q849.529 60.8689 849.529 49.9314 Q849.529 38.832 855.605 32.472 Q861.722 26.1121 872.335 26.1121 Q875.779 26.1121 879.06 26.8413 Q882.341 27.5299 885.42 28.9478 Z" fill="#000000" fill-rule="evenodd" fill-opacity="1"/><path clip-path="url(#clip200)" d="M937.19 48.0275 L937.19 51.6733 L902.92 51.6733 Q903.406 59.3701 907.538 63.421 Q911.71 67.4314 919.123 67.4314 Q923.417 67.4314 927.428 66.3781 Q931.479 65.3249 935.449 63.2184 L935.449 70.267 Q931.438 71.9684 927.225 72.8596 Q923.012 73.7508 918.678 73.7508 Q907.821 73.7508 901.461 67.4314 Q895.142 61.1119 895.142 50.3365 Q895.142 39.1965 901.137 32.6746 Q907.173 26.1121 917.381 26.1121 Q926.537 26.1121 931.843 32.0264 Q937.19 37.9003 937.19 48.0275 M929.737 45.84 Q929.656 39.7232 926.293 36.0774 Q922.972 32.4315 917.463 32.4315 Q911.224 32.4315 907.457 35.9558 Q903.73 39.4801 903.163 45.8805 L929.737 45.84 Z" fill="#000000" fill-rule="evenodd" fill-opacity="1"/><path clip-path="url(#clip200)" d="M993.376 32.4315 Q987.381 32.4315 983.897 37.1306 Q980.414 41.7891 980.414 49.9314 Q980.414 58.0738 983.857 62.7728 Q987.341 67.4314 993.376 67.4314 Q999.331 67.4314 1002.82 62.7323 Q1006.3 58.0333 1006.3 49.9314 Q1006.3 41.8701 1002.82 37.1711 Q999.331 32.4315 993.376 32.4315 M993.376 26.1121 Q1003.1 26.1121 1008.65 32.4315 Q1014.2 38.7509 1014.2 49.9314 Q1014.2 61.0714 1008.65 67.4314 Q1003.1 73.7508 993.376 73.7508 Q983.614 73.7508 978.064 67.4314 Q972.555 61.0714 972.555 49.9314 Q972.555 38.7509 978.064 32.4315 Q983.614 26.1121 993.376 26.1121 Z" fill="#000000" fill-rule="evenodd" fill-opacity="1"/><path clip-path="url(#clip200)" d="M1049.52 9.54393 L1049.52 15.7418 L1042.39 15.7418 Q1038.38 15.7418 1036.8 17.3622 Q1035.26 18.9825 1035.26 23.1955 L1035.26 27.2059 L1047.54 27.2059 L1047.54 32.9987 L1035.26 32.9987 L1035.26 72.576 L1027.77 72.576 L1027.77 32.9987 L1020.64 32.9987 L1020.64 27.2059 L1027.77 27.2059 L1027.77 24.0462 Q1027.77 16.471 1031.29 13.0277 Q1034.82 9.54393 1042.47 9.54393 L1049.52 9.54393 Z" fill="#000000" fill-rule="evenodd" fill-opacity="1"/><path clip-path="url(#clip200)" d="M1102.75 49.7694 Q1093.72 49.7694 1090.23 51.8354 Q1086.75 53.9013 1086.75 58.8839 Q1086.75 62.8538 1089.34 65.2034 Q1091.98 67.5124 1096.47 67.5124 Q1102.67 67.5124 1106.4 63.1374 Q1110.16 58.7219 1110.16 51.4303 L1110.16 49.7694 L1102.75 49.7694 M1117.62 46.6907 L1117.62 72.576 L1110.16 72.576 L1110.16 65.6895 Q1107.61 69.8214 1103.8 71.8063 Q1100 73.7508 1094.49 73.7508 Q1087.52 73.7508 1083.39 69.8619 Q1079.3 65.9325 1079.3 59.3701 Q1079.3 51.7138 1084.4 47.825 Q1089.54 43.9361 1099.71 43.9361 L1110.16 43.9361 L1110.16 43.2069 Q1110.16 38.0623 1106.76 35.2672 Q1103.4 32.4315 1097.28 32.4315 Q1093.39 32.4315 1089.71 33.3632 Q1086.02 34.295 1082.62 36.1584 L1082.62 29.2718 Q1086.71 27.692 1090.56 26.9223 Q1094.41 26.1121 1098.05 26.1121 Q1107.9 26.1121 1112.76 31.2163 Q1117.62 36.3204 1117.62 46.6907 Z" fill="#000000" fill-rule="evenodd" fill-opacity="1"/><path clip-path="url(#clip200)" d="M1132.97 9.54393 L1140.42 9.54393 L1140.42 72.576 L1132.97 72.576 L1132.97 9.54393 Z" fill="#000000" fill-rule="evenodd" fill-opacity="1"/><path clip-path="url(#clip200)" d="M1185.88 49.3643 Q1185.88 41.2625 1182.51 36.8065 Q1179.19 32.3505 1173.16 32.3505 Q1167.16 32.3505 1163.8 36.8065 Q1160.48 41.2625 1160.48 49.3643 Q1160.48 57.4256 1163.8 61.8816 Q1167.16 66.3376 1173.16 66.3376 Q1179.19 66.3376 1182.51 61.8816 Q1185.88 57.4256 1185.88 49.3643 M1193.33 66.9452 Q1193.33 78.5308 1188.18 84.1616 Q1183.04 89.8329 1172.43 89.8329 Q1168.5 89.8329 1165.01 89.2252 Q1161.53 88.6581 1158.25 87.4428 L1158.25 80.1917 Q1161.53 81.9741 1164.73 82.8248 Q1167.93 83.6755 1171.25 83.6755 Q1178.58 83.6755 1182.23 79.8271 Q1185.88 76.0193 1185.88 68.282 L1185.88 64.5957 Q1183.57 68.6061 1179.96 70.5911 Q1176.36 72.576 1171.33 72.576 Q1162.99 72.576 1157.88 66.2161 Q1152.78 59.8562 1152.78 49.3643 Q1152.78 38.832 1157.88 32.472 Q1162.99 26.1121 1171.33 26.1121 Q1176.36 26.1121 1179.96 28.0971 Q1183.57 30.082 1185.88 34.0924 L1185.88 27.2059 L1193.33 27.2059 L1193.33 66.9452 Z" fill="#000000" fill-rule="evenodd" fill-opacity="1"/><path clip-path="url(#clip200)" d="M1226.26 32.4315 Q1220.27 32.4315 1216.78 37.1306 Q1213.3 41.7891 1213.3 49.9314 Q1213.3 58.0738 1216.74 62.7728 Q1220.23 67.4314 1226.26 67.4314 Q1232.22 67.4314 1235.7 62.7323 Q1239.19 58.0333 1239.19 49.9314 Q1239.19 41.8701 1235.7 37.1711 Q1232.22 32.4315 1226.26 32.4315 M1226.26 26.1121 Q1235.99 26.1121 1241.53 32.4315 Q1247.08 38.7509 1247.08 49.9314 Q1247.08 61.0714 1241.53 67.4314 Q1235.99 73.7508 1226.26 73.7508 Q1216.5 73.7508 1210.95 67.4314 Q1205.44 61.0714 1205.44 49.9314 Q1205.44 38.7509 1210.95 32.4315 Q1216.5 26.1121 1226.26 26.1121 Z" fill="#000000" fill-rule="evenodd" fill-opacity="1"/><path clip-path="url(#clip200)" d="M1285.73 34.1734 Q1284.47 33.4443 1282.98 33.1202 Q1281.52 32.7556 1279.73 32.7556 Q1273.42 32.7556 1270.01 36.8875 Q1266.65 40.9789 1266.65 48.6757 L1266.65 72.576 L1259.16 72.576 L1259.16 27.2059 L1266.65 27.2059 L1266.65 34.2544 Q1269 30.1225 1272.77 28.1376 Q1276.53 26.1121 1281.92 26.1121 Q1282.69 26.1121 1283.62 26.2337 Q1284.56 26.3147 1285.69 26.5172 L1285.73 34.1734 Z" fill="#000000" fill-rule="evenodd" fill-opacity="1"/><path clip-path="url(#clip200)" d="M1293.55 27.2059 L1301 27.2059 L1301 72.576 L1293.55 72.576 L1293.55 27.2059 M1293.55 9.54393 L1301 9.54393 L1301 18.9825 L1293.55 18.9825 L1293.55 9.54393 Z" fill="#000000" fill-rule="evenodd" fill-opacity="1"/><path clip-path="url(#clip200)" d="M1323.97 14.324 L1323.97 27.2059 L1339.32 27.2059 L1339.32 32.9987 L1323.97 32.9987 L1323.97 57.6282 Q1323.97 63.1779 1325.47 64.7578 Q1327.01 66.3376 1331.67 66.3376 L1339.32 66.3376 L1339.32 72.576 L1331.67 72.576 Q1323.04 72.576 1319.76 69.3758 Q1316.48 66.1351 1316.48 57.6282 L1316.48 32.9987 L1311.01 32.9987 L1311.01 27.2059 L1316.48 27.2059 L1316.48 14.324 L1323.97 14.324 Z" fill="#000000" fill-rule="evenodd" fill-opacity="1"/><path clip-path="url(#clip200)" d="M1386.84 45.1919 L1386.84 72.576 L1379.39 72.576 L1379.39 45.4349 Q1379.39 38.994 1376.88 35.7938 Q1374.36 32.5936 1369.34 32.5936 Q1363.31 32.5936 1359.82 36.4419 Q1356.34 40.2903 1356.34 46.9338 L1356.34 72.576 L1348.84 72.576 L1348.84 9.54393 L1356.34 9.54393 L1356.34 34.2544 Q1359.01 30.163 1362.62 28.1376 Q1366.26 26.1121 1371 26.1121 Q1378.82 26.1121 1382.83 30.9732 Q1386.84 35.7938 1386.84 45.1919 Z" fill="#000000" fill-rule="evenodd" fill-opacity="1"/><path clip-path="url(#clip200)" d="M1437.03 35.9153 Q1439.83 30.8922 1443.72 28.5022 Q1447.6 26.1121 1452.87 26.1121 Q1459.96 26.1121 1463.81 31.0947 Q1467.66 36.0368 1467.66 45.1919 L1467.66 72.576 L1460.16 72.576 L1460.16 45.4349 Q1460.16 38.913 1457.85 35.7533 Q1455.54 32.5936 1450.8 32.5936 Q1445.01 32.5936 1441.65 36.4419 Q1438.29 40.2903 1438.29 46.9338 L1438.29 72.576 L1430.79 72.576 L1430.79 45.4349 Q1430.79 38.8725 1428.48 35.7533 Q1426.18 32.5936 1421.35 32.5936 Q1415.64 32.5936 1412.28 36.4824 Q1408.92 40.3308 1408.92 46.9338 L1408.92 72.576 L1401.42 72.576 L1401.42 27.2059 L1408.92 27.2059 L1408.92 34.2544 Q1411.47 30.082 1415.04 28.0971 Q1418.6 26.1121 1423.5 26.1121 Q1428.44 26.1121 1431.89 28.6237 Q1435.37 31.1352 1437.03 35.9153 Z" fill="#000000" fill-rule="evenodd" fill-opacity="1"/><path clip-path="url(#clip200)" d="M1529.51 49.7694 Q1520.48 49.7694 1517 51.8354 Q1513.51 53.9013 1513.51 58.8839 Q1513.51 62.8538 1516.11 65.2034 Q1518.74 67.5124 1523.23 67.5124 Q1529.43 67.5124 1533.16 63.1374 Q1536.93 58.7219 1536.93 51.4303 L1536.93 49.7694 L1529.51 49.7694 M1544.38 46.6907 L1544.38 72.576 L1536.93 72.576 L1536.93 65.6895 Q1534.37 69.8214 1530.57 71.8063 Q1526.76 73.7508 1521.25 73.7508 Q1514.28 73.7508 1510.15 69.8619 Q1506.06 65.9325 1506.06 59.3701 Q1506.06 51.7138 1511.16 47.825 Q1516.31 43.9361 1526.48 43.9361 L1536.93 43.9361 L1536.93 43.2069 Q1536.93 38.0623 1533.52 35.2672 Q1530.16 32.4315 1524.04 32.4315 Q1520.16 32.4315 1516.47 33.3632 Q1512.78 34.295 1509.38 36.1584 L1509.38 29.2718 Q1513.47 27.692 1517.32 26.9223 Q1521.17 26.1121 1524.81 26.1121 Q1534.66 26.1121 1539.52 31.2163 Q1544.38 36.3204 1544.38 46.6907 Z" fill="#000000" fill-rule="evenodd" fill-opacity="1"/><path clip-path="url(#clip200)" d="M1588.66 28.5427 L1588.66 35.5912 Q1585.5 33.9709 1582.09 33.1607 Q1578.69 32.3505 1575.05 32.3505 Q1569.5 32.3505 1566.7 34.0519 Q1563.95 35.7533 1563.95 39.156 Q1563.95 41.7486 1565.93 43.2475 Q1567.92 44.7058 1573.91 46.0426 L1576.46 46.6097 Q1584.4 48.3111 1587.73 51.4303 Q1591.09 54.509 1591.09 60.0587 Q1591.09 66.3781 1586.06 70.0644 Q1581.08 73.7508 1572.33 73.7508 Q1568.69 73.7508 1564.72 73.0216 Q1560.79 72.3329 1556.41 70.9151 L1556.41 63.2184 Q1560.54 65.3654 1564.55 66.4591 Q1568.56 67.5124 1572.49 67.5124 Q1577.76 67.5124 1580.6 65.73 Q1583.43 63.9071 1583.43 60.6258 Q1583.43 57.5877 1581.37 55.9673 Q1579.34 54.3469 1572.41 52.8481 L1569.82 52.2405 Q1562.89 50.7821 1559.81 47.7845 Q1556.74 44.7463 1556.74 39.4801 Q1556.74 33.0797 1561.27 29.5959 Q1565.81 26.1121 1574.15 26.1121 Q1578.29 26.1121 1581.93 26.7198 Q1585.58 27.3274 1588.66 28.5427 Z" fill="#000000" fill-rule="evenodd" fill-opacity="1"/><path clip-path="url(#clip200)" d="M1649.95 49.7694 Q1640.91 49.7694 1637.43 51.8354 Q1633.95 53.9013 1633.95 58.8839 Q1633.95 62.8538 1636.54 65.2034 Q1639.17 67.5124 1643.67 67.5124 Q1649.87 67.5124 1653.59 63.1374 Q1657.36 58.7219 1657.36 51.4303 L1657.36 49.7694 L1649.95 49.7694 M1664.81 46.6907 L1664.81 72.576 L1657.36 72.576 L1657.36 65.6895 Q1654.81 69.8214 1651 71.8063 Q1647.19 73.7508 1641.68 73.7508 Q1634.72 73.7508 1630.58 69.8619 Q1626.49 65.9325 1626.49 59.3701 Q1626.49 51.7138 1631.6 47.825 Q1636.74 43.9361 1646.91 43.9361 L1657.36 43.9361 L1657.36 43.2069 Q1657.36 38.0623 1653.96 35.2672 Q1650.6 32.4315 1644.48 32.4315 Q1640.59 32.4315 1636.9 33.3632 Q1633.22 34.295 1629.81 36.1584 L1629.81 29.2718 Q1633.91 27.692 1637.75 26.9223 Q1641.6 26.1121 1645.25 26.1121 Q1655.09 26.1121 1659.95 31.2163 Q1664.81 36.3204 1664.81 46.6907 Z" fill="#000000" fill-rule="evenodd" fill-opacity="1"/><path clip-path="url(#clip200)" d="M1729.51 9.54393 L1729.51 15.7418 L1722.38 15.7418 Q1718.37 15.7418 1716.79 17.3622 Q1715.25 18.9825 1715.25 23.1955 L1715.25 27.2059 L1727.52 27.2059 L1727.52 32.9987 L1715.25 32.9987 L1715.25 72.576 L1707.75 72.576 L1707.75 32.9987 L1700.62 32.9987 L1700.62 27.2059 L1707.75 27.2059 L1707.75 24.0462 Q1707.75 16.471 1711.28 13.0277 Q1714.8 9.54393 1722.46 9.54393 L1729.51 9.54393 Z" fill="#000000" fill-rule="evenodd" fill-opacity="1"/><path clip-path="url(#clip200)" d="M1734.98 54.671 L1734.98 27.2059 L1742.43 27.2059 L1742.43 54.3874 Q1742.43 60.8284 1744.94 64.0691 Q1747.45 67.2693 1752.48 67.2693 Q1758.51 67.2693 1762 63.421 Q1765.52 59.5726 1765.52 52.9291 L1765.52 27.2059 L1772.97 27.2059 L1772.97 72.576 L1765.52 72.576 L1765.52 65.6084 Q1762.81 69.7404 1759.2 71.7658 Q1755.64 73.7508 1750.9 73.7508 Q1743.08 73.7508 1739.03 68.8897 Q1734.98 64.0286 1734.98 54.671 M1753.73 26.1121 L1753.73 26.1121 Z" fill="#000000" fill-rule="evenodd" fill-opacity="1"/><path clip-path="url(#clip200)" d="M1826.04 45.1919 L1826.04 72.576 L1818.59 72.576 L1818.59 45.4349 Q1818.59 38.994 1816.07 35.7938 Q1813.56 32.5936 1808.54 32.5936 Q1802.5 32.5936 1799.02 36.4419 Q1795.54 40.2903 1795.54 46.9338 L1795.54 72.576 L1788.04 72.576 L1788.04 27.2059 L1795.54 27.2059 L1795.54 34.2544 Q1798.21 30.163 1801.82 28.1376 Q1805.46 26.1121 1810.2 26.1121 Q1818.02 26.1121 1822.03 30.9732 Q1826.04 35.7938 1826.04 45.1919 Z" fill="#000000" fill-rule="evenodd" fill-opacity="1"/><path clip-path="url(#clip200)" d="M1873.56 28.9478 L1873.56 35.9153 Q1870.4 34.1734 1867.2 33.3227 Q1864.04 32.4315 1860.8 32.4315 Q1853.55 32.4315 1849.54 37.0496 Q1845.52 41.6271 1845.52 49.9314 Q1845.52 58.2358 1849.54 62.8538 Q1853.55 67.4314 1860.8 67.4314 Q1864.04 67.4314 1867.2 66.5807 Q1870.4 65.6895 1873.56 63.9476 L1873.56 70.8341 Q1870.44 72.2924 1867.08 73.0216 Q1863.75 73.7508 1859.99 73.7508 Q1849.74 73.7508 1843.7 67.3098 Q1837.67 60.8689 1837.67 49.9314 Q1837.67 38.832 1843.74 32.472 Q1849.86 26.1121 1860.47 26.1121 Q1863.92 26.1121 1867.2 26.8413 Q1870.48 27.5299 1873.56 28.9478 Z" fill="#000000" fill-rule="evenodd" fill-opacity="1"/><path clip-path="url(#clip200)" d="M1893.89 14.324 L1893.89 27.2059 L1909.25 27.2059 L1909.25 32.9987 L1893.89 32.9987 L1893.89 57.6282 Q1893.89 63.1779 1895.39 64.7578 Q1896.93 66.3376 1901.59 66.3376 L1909.25 66.3376 L1909.25 72.576 L1901.59 72.576 Q1892.96 72.576 1889.68 69.3758 Q1886.4 66.1351 1886.4 57.6282 L1886.4 32.9987 L1880.93 32.9987 L1880.93 27.2059 L1886.4 27.2059 L1886.4 14.324 L1893.89 14.324 Z" fill="#000000" fill-rule="evenodd" fill-opacity="1"/><path clip-path="url(#clip200)" d="M1919.05 27.2059 L1926.5 27.2059 L1926.5 72.576 L1919.05 72.576 L1919.05 27.2059 M1919.05 9.54393 L1926.5 9.54393 L1926.5 18.9825 L1919.05 18.9825 L1919.05 9.54393 Z" fill="#000000" fill-rule="evenodd" fill-opacity="1"/><path clip-path="url(#clip200)" d="M1959.68 32.4315 Q1953.68 32.4315 1950.2 37.1306 Q1946.72 41.7891 1946.72 49.9314 Q1946.72 58.0738 1950.16 62.7728 Q1953.64 67.4314 1959.68 67.4314 Q1965.63 67.4314 1969.12 62.7323 Q1972.6 58.0333 1972.6 49.9314 Q1972.6 41.8701 1969.12 37.1711 Q1965.63 32.4315 1959.68 32.4315 M1959.68 26.1121 Q1969.4 26.1121 1974.95 32.4315 Q1980.5 38.7509 1980.5 49.9314 Q1980.5 61.0714 1974.95 67.4314 Q1969.4 73.7508 1959.68 73.7508 Q1949.92 73.7508 1944.37 67.4314 Q1938.86 61.0714 1938.86 49.9314 Q1938.86 38.7509 1944.37 32.4315 Q1949.92 26.1121 1959.68 26.1121 Z" fill="#000000" fill-rule="evenodd" fill-opacity="1"/><path clip-path="url(#clip200)" d="M2030.57 45.1919 L2030.57 72.576 L2023.12 72.576 L2023.12 45.4349 Q2023.12 38.994 2020.6 35.7938 Q2018.09 32.5936 2013.07 32.5936 Q2007.03 32.5936 2003.55 36.4419 Q2000.07 40.2903 2000.07 46.9338 L2000.07 72.576 L1992.57 72.576 L1992.57 27.2059 L2000.07 27.2059 L2000.07 34.2544 Q2002.74 30.163 2006.35 28.1376 Q2009.99 26.1121 2014.73 26.1121 Q2022.55 26.1121 2026.56 30.9732 Q2030.57 35.7938 2030.57 45.1919 Z" fill="#000000" fill-rule="evenodd" fill-opacity="1"/><path clip-path="url(#clip200)" d="M2089.39 32.4315 Q2083.39 32.4315 2079.91 37.1306 Q2076.43 41.7891 2076.43 49.9314 Q2076.43 58.0738 2079.87 62.7728 Q2083.35 67.4314 2089.39 67.4314 Q2095.34 67.4314 2098.83 62.7323 Q2102.31 58.0333 2102.31 49.9314 Q2102.31 41.8701 2098.83 37.1711 Q2095.34 32.4315 2089.39 32.4315 M2089.39 26.1121 Q2099.11 26.1121 2104.66 32.4315 Q2110.21 38.7509 2110.21 49.9314 Q2110.21 61.0714 2104.66 67.4314 Q2099.11 73.7508 2089.39 73.7508 Q2079.63 73.7508 2074.08 67.4314 Q2068.57 61.0714 2068.57 49.9314 Q2068.57 38.7509 2074.08 32.4315 Q2079.63 26.1121 2089.39 26.1121 Z" fill="#000000" fill-rule="evenodd" fill-opacity="1"/><path clip-path="url(#clip200)" d="M2145.53 9.54393 L2145.53 15.7418 L2138.41 15.7418 Q2134.39 15.7418 2132.81 17.3622 Q2131.28 18.9825 2131.28 23.1955 L2131.28 27.2059 L2143.55 27.2059 L2143.55 32.9987 L2131.28 32.9987 L2131.28 72.576 L2123.78 72.576 L2123.78 32.9987 L2116.65 32.9987 L2116.65 27.2059 L2123.78 27.2059 L2123.78 24.0462 Q2123.78 16.471 2127.31 13.0277 Q2130.83 9.54393 2138.49 9.54393 L2145.53 9.54393 Z" fill="#000000" fill-rule="evenodd" fill-opacity="1"/><path clip-path="url(#clip200)" d="M2177.86 9.54393 L2185.36 9.54393 L2185.36 46.7717 L2207.59 27.2059 L2217.11 27.2059 L2193.05 48.4326 L2218.13 72.576 L2208.4 72.576 L2185.36 50.4176 L2185.36 72.576 L2177.86 72.576 L2177.86 9.54393 Z" fill="#000000" fill-rule="evenodd" fill-opacity="1"/><circle clip-path="url(#clip202)" cx="335.627" cy="225.789" r="14" fill="#009af9" fill-rule="evenodd" fill-opacity="1" stroke="#000000" stroke-opacity="1" stroke-width="3.2"/>
<circle clip-path="url(#clip202)" cx="385.842" cy="361.671" r="14" fill="#009af9" fill-rule="evenodd" fill-opacity="1" stroke="#000000" stroke-opacity="1" stroke-width="3.2"/>
<circle clip-path="url(#clip202)" cx="436.056" cy="417.236" r="14" fill="#009af9" fill-rule="evenodd" fill-opacity="1" stroke="#000000" stroke-opacity="1" stroke-width="3.2"/>
<circle clip-path="url(#clip202)" cx="486.271" cy="511.932" r="14" fill="#009af9" fill-rule="evenodd" fill-opacity="1" stroke="#000000" stroke-opacity="1" stroke-width="3.2"/>
<circle clip-path="url(#clip202)" cx="536.486" cy="602.719" r="14" fill="#009af9" fill-rule="evenodd" fill-opacity="1" stroke="#000000" stroke-opacity="1" stroke-width="3.2"/>
<circle clip-path="url(#clip202)" cx="586.701" cy="705.791" r="14" fill="#009af9" fill-rule="evenodd" fill-opacity="1" stroke="#000000" stroke-opacity="1" stroke-width="3.2"/>
<circle clip-path="url(#clip202)" cx="636.916" cy="737.091" r="14" fill="#009af9" fill-rule="evenodd" fill-opacity="1" stroke="#000000" stroke-opacity="1" stroke-width="3.2"/>
<circle clip-path="url(#clip202)" cx="687.131" cy="820.186" r="14" fill="#009af9" fill-rule="evenodd" fill-opacity="1" stroke="#000000" stroke-opacity="1" stroke-width="3.2"/>
<circle clip-path="url(#clip202)" cx="737.345" cy="926.099" r="14" fill="#009af9" fill-rule="evenodd" fill-opacity="1" stroke="#000000" stroke-opacity="1" stroke-width="3.2"/>
<circle clip-path="url(#clip202)" cx="837.775" cy="941.87" r="14" fill="#009af9" fill-rule="evenodd" fill-opacity="1" stroke="#000000" stroke-opacity="1" stroke-width="3.2"/>
<circle clip-path="url(#clip202)" cx="887.99" cy="924.324" r="14" fill="#009af9" fill-rule="evenodd" fill-opacity="1" stroke="#000000" stroke-opacity="1" stroke-width="3.2"/>
<circle clip-path="url(#clip202)" cx="938.205" cy="967.742" r="14" fill="#009af9" fill-rule="evenodd" fill-opacity="1" stroke="#000000" stroke-opacity="1" stroke-width="3.2"/>
<circle clip-path="url(#clip202)" cx="988.419" cy="959.776" r="14" fill="#009af9" fill-rule="evenodd" fill-opacity="1" stroke="#000000" stroke-opacity="1" stroke-width="3.2"/>
<circle clip-path="url(#clip202)" cx="1038.63" cy="1145.44" r="14" fill="#009af9" fill-rule="evenodd" fill-opacity="1" stroke="#000000" stroke-opacity="1" stroke-width="3.2"/>
<circle clip-path="url(#clip202)" cx="1088.85" cy="1113.07" r="14" fill="#009af9" fill-rule="evenodd" fill-opacity="1" stroke="#000000" stroke-opacity="1" stroke-width="3.2"/>
<circle clip-path="url(#clip202)" cx="1139.06" cy="1097.41" r="14" fill="#009af9" fill-rule="evenodd" fill-opacity="1" stroke="#000000" stroke-opacity="1" stroke-width="3.2"/>
<circle clip-path="url(#clip202)" cx="1239.49" cy="1140.22" r="14" fill="#009af9" fill-rule="evenodd" fill-opacity="1" stroke="#000000" stroke-opacity="1" stroke-width="3.2"/>
<circle clip-path="url(#clip202)" cx="1289.71" cy="1123.15" r="14" fill="#009af9" fill-rule="evenodd" fill-opacity="1" stroke="#000000" stroke-opacity="1" stroke-width="3.2"/>
<circle clip-path="url(#clip202)" cx="1339.92" cy="1102.71" r="14" fill="#009af9" fill-rule="evenodd" fill-opacity="1" stroke="#000000" stroke-opacity="1" stroke-width="3.2"/>
<circle clip-path="url(#clip202)" cx="1390.14" cy="1164.38" r="14" fill="#009af9" fill-rule="evenodd" fill-opacity="1" stroke="#000000" stroke-opacity="1" stroke-width="3.2"/>
<circle clip-path="url(#clip202)" cx="1440.35" cy="1146.63" r="14" fill="#009af9" fill-rule="evenodd" fill-opacity="1" stroke="#000000" stroke-opacity="1" stroke-width="3.2"/>
<circle clip-path="url(#clip202)" cx="1490.57" cy="1226.05" r="14" fill="#009af9" fill-rule="evenodd" fill-opacity="1" stroke="#000000" stroke-opacity="1" stroke-width="3.2"/>
<circle clip-path="url(#clip202)" cx="1540.78" cy="1245.49" r="14" fill="#009af9" fill-rule="evenodd" fill-opacity="1" stroke="#000000" stroke-opacity="1" stroke-width="3.2"/>
<circle clip-path="url(#clip202)" cx="1591" cy="1240.25" r="14" fill="#009af9" fill-rule="evenodd" fill-opacity="1" stroke="#000000" stroke-opacity="1" stroke-width="3.2"/>
<circle clip-path="url(#clip202)" cx="1641.21" cy="1258.71" r="14" fill="#009af9" fill-rule="evenodd" fill-opacity="1" stroke="#000000" stroke-opacity="1" stroke-width="3.2"/>
<circle clip-path="url(#clip202)" cx="1691.43" cy="1283.89" r="14" fill="#009af9" fill-rule="evenodd" fill-opacity="1" stroke="#000000" stroke-opacity="1" stroke-width="3.2"/>
<circle clip-path="url(#clip202)" cx="1741.64" cy="1330.15" r="14" fill="#009af9" fill-rule="evenodd" fill-opacity="1" stroke="#000000" stroke-opacity="1" stroke-width="3.2"/>
<circle clip-path="url(#clip202)" cx="1791.86" cy="1326.78" r="14" fill="#009af9" fill-rule="evenodd" fill-opacity="1" stroke="#000000" stroke-opacity="1" stroke-width="3.2"/>
<circle clip-path="url(#clip202)" cx="1842.07" cy="1347.93" r="14" fill="#009af9" fill-rule="evenodd" fill-opacity="1" stroke="#000000" stroke-opacity="1" stroke-width="3.2"/>
<circle clip-path="url(#clip202)" cx="1892.29" cy="1360.19" r="14" fill="#009af9" fill-rule="evenodd" fill-opacity="1" stroke="#000000" stroke-opacity="1" stroke-width="3.2"/>
<circle clip-path="url(#clip202)" cx="1942.5" cy="1353.09" r="14" fill="#009af9" fill-rule="evenodd" fill-opacity="1" stroke="#000000" stroke-opacity="1" stroke-width="3.2"/>
<circle clip-path="url(#clip202)" cx="1992.72" cy="1386.4" r="14" fill="#009af9" fill-rule="evenodd" fill-opacity="1" stroke="#000000" stroke-opacity="1" stroke-width="3.2"/>
<circle clip-path="url(#clip202)" cx="2042.93" cy="1365.28" r="14" fill="#009af9" fill-rule="evenodd" fill-opacity="1" stroke="#000000" stroke-opacity="1" stroke-width="3.2"/>
<circle clip-path="url(#clip202)" cx="2093.15" cy="1356.7" r="14" fill="#009af9" fill-rule="evenodd" fill-opacity="1" stroke="#000000" stroke-opacity="1" stroke-width="3.2"/>
<circle clip-path="url(#clip202)" cx="2143.36" cy="1375.05" r="14" fill="#009af9" fill-rule="evenodd" fill-opacity="1" stroke="#000000" stroke-opacity="1" stroke-width="3.2"/>
<circle clip-path="url(#clip202)" cx="2193.57" cy="1382.19" r="14" fill="#009af9" fill-rule="evenodd" fill-opacity="1" stroke="#000000" stroke-opacity="1" stroke-width="3.2"/>
<circle clip-path="url(#clip202)" cx="2243.79" cy="1352.67" r="14" fill="#009af9" fill-rule="evenodd" fill-opacity="1" stroke="#000000" stroke-opacity="1" stroke-width="3.2"/>
<circle clip-path="url(#clip202)" cx="2294" cy="1330.59" r="14" fill="#009af9" fill-rule="evenodd" fill-opacity="1" stroke="#000000" stroke-opacity="1" stroke-width="3.2"/>
<circle clip-path="url(#clip202)" cx="385.842" cy="160.256" r="14" fill="#e26f46" fill-rule="evenodd" fill-opacity="1" stroke="#000000" stroke-opacity="1" stroke-width="3.2"/>
<circle clip-path="url(#clip202)" cx="436.056" cy="160.279" r="14" fill="#e26f46" fill-rule="evenodd" fill-opacity="1" stroke="#000000" stroke-opacity="1" stroke-width="3.2"/>
<circle clip-path="url(#clip202)" cx="486.271" cy="160.425" r="14" fill="#e26f46" fill-rule="evenodd" fill-opacity="1" stroke="#000000" stroke-opacity="1" stroke-width="3.2"/>
<circle clip-path="url(#clip202)" cx="536.486" cy="160.444" r="14" fill="#e26f46" fill-rule="evenodd" fill-opacity="1" stroke="#000000" stroke-opacity="1" stroke-width="3.2"/>
<circle clip-path="url(#clip202)" cx="586.701" cy="160.553" r="14" fill="#e26f46" fill-rule="evenodd" fill-opacity="1" stroke="#000000" stroke-opacity="1" stroke-width="3.2"/>
<circle clip-path="url(#clip202)" cx="636.916" cy="160.585" r="14" fill="#e26f46" fill-rule="evenodd" fill-opacity="1" stroke="#000000" stroke-opacity="1" stroke-width="3.2"/>
<circle clip-path="url(#clip202)" cx="687.131" cy="160.687" r="14" fill="#e26f46" fill-rule="evenodd" fill-opacity="1" stroke="#000000" stroke-opacity="1" stroke-width="3.2"/>
<circle clip-path="url(#clip202)" cx="737.345" cy="160.7" r="14" fill="#e26f46" fill-rule="evenodd" fill-opacity="1" stroke="#000000" stroke-opacity="1" stroke-width="3.2"/>
<circle clip-path="url(#clip202)" cx="787.56" cy="160.758" r="14" fill="#e26f46" fill-rule="evenodd" fill-opacity="1" stroke="#000000" stroke-opacity="1" stroke-width="3.2"/>
<circle clip-path="url(#clip202)" cx="837.775" cy="160.781" r="14" fill="#e26f46" fill-rule="evenodd" fill-opacity="1" stroke="#000000" stroke-opacity="1" stroke-width="3.2"/>
<circle clip-path="url(#clip202)" cx="887.99" cy="160.822" r="14" fill="#e26f46" fill-rule="evenodd" fill-opacity="1" stroke="#000000" stroke-opacity="1" stroke-width="3.2"/>
<circle clip-path="url(#clip202)" cx="938.205" cy="160.832" r="14" fill="#e26f46" fill-rule="evenodd" fill-opacity="1" stroke="#000000" stroke-opacity="1" stroke-width="3.2"/>
<circle clip-path="url(#clip202)" cx="988.419" cy="160.874" r="14" fill="#e26f46" fill-rule="evenodd" fill-opacity="1" stroke="#000000" stroke-opacity="1" stroke-width="3.2"/>
<circle clip-path="url(#clip202)" cx="1038.63" cy="160.891" r="14" fill="#e26f46" fill-rule="evenodd" fill-opacity="1" stroke="#000000" stroke-opacity="1" stroke-width="3.2"/>
<circle clip-path="url(#clip202)" cx="1088.85" cy="160.932" r="14" fill="#e26f46" fill-rule="evenodd" fill-opacity="1" stroke="#000000" stroke-opacity="1" stroke-width="3.2"/>
<circle clip-path="url(#clip202)" cx="1139.06" cy="160.944" r="14" fill="#e26f46" fill-rule="evenodd" fill-opacity="1" stroke="#000000" stroke-opacity="1" stroke-width="3.2"/>
<circle clip-path="url(#clip202)" cx="1189.28" cy="160.971" r="14" fill="#e26f46" fill-rule="evenodd" fill-opacity="1" stroke="#000000" stroke-opacity="1" stroke-width="3.2"/>
<circle clip-path="url(#clip202)" cx="1239.49" cy="160.983" r="14" fill="#e26f46" fill-rule="evenodd" fill-opacity="1" stroke="#000000" stroke-opacity="1" stroke-width="3.2"/>
<circle clip-path="url(#clip202)" cx="1289.71" cy="161.007" r="14" fill="#e26f46" fill-rule="evenodd" fill-opacity="1" stroke="#000000" stroke-opacity="1" stroke-width="3.2"/>
<circle clip-path="url(#clip202)" cx="1339.92" cy="161.014" r="14" fill="#e26f46" fill-rule="evenodd" fill-opacity="1" stroke="#000000" stroke-opacity="1" stroke-width="3.2"/>
<circle clip-path="url(#clip202)" cx="1390.14" cy="161.038" r="14" fill="#e26f46" fill-rule="evenodd" fill-opacity="1" stroke="#000000" stroke-opacity="1" stroke-width="3.2"/>
<circle clip-path="url(#clip202)" cx="1440.35" cy="161.045" r="14" fill="#e26f46" fill-rule="evenodd" fill-opacity="1" stroke="#000000" stroke-opacity="1" stroke-width="3.2"/>
<circle clip-path="url(#clip202)" cx="1490.57" cy="161.058" r="14" fill="#e26f46" fill-rule="evenodd" fill-opacity="1" stroke="#000000" stroke-opacity="1" stroke-width="3.2"/>
<circle clip-path="url(#clip202)" cx="1540.78" cy="161.064" r="14" fill="#e26f46" fill-rule="evenodd" fill-opacity="1" stroke="#000000" stroke-opacity="1" stroke-width="3.2"/>
<circle clip-path="url(#clip202)" cx="1591" cy="161.076" r="14" fill="#e26f46" fill-rule="evenodd" fill-opacity="1" stroke="#000000" stroke-opacity="1" stroke-width="3.2"/>
<circle clip-path="url(#clip202)" cx="1641.21" cy="161.082" r="14" fill="#e26f46" fill-rule="evenodd" fill-opacity="1" stroke="#000000" stroke-opacity="1" stroke-width="3.2"/>
<circle clip-path="url(#clip202)" cx="1691.43" cy="161.093" r="14" fill="#e26f46" fill-rule="evenodd" fill-opacity="1" stroke="#000000" stroke-opacity="1" stroke-width="3.2"/>
<circle clip-path="url(#clip202)" cx="1741.64" cy="161.098" r="14" fill="#e26f46" fill-rule="evenodd" fill-opacity="1" stroke="#000000" stroke-opacity="1" stroke-width="3.2"/>
<circle clip-path="url(#clip202)" cx="1791.86" cy="161.108" r="14" fill="#e26f46" fill-rule="evenodd" fill-opacity="1" stroke="#000000" stroke-opacity="1" stroke-width="3.2"/>
<circle clip-path="url(#clip202)" cx="1842.07" cy="161.111" r="14" fill="#e26f46" fill-rule="evenodd" fill-opacity="1" stroke="#000000" stroke-opacity="1" stroke-width="3.2"/>
<circle clip-path="url(#clip202)" cx="1892.29" cy="161.117" r="14" fill="#e26f46" fill-rule="evenodd" fill-opacity="1" stroke="#000000" stroke-opacity="1" stroke-width="3.2"/>
<circle clip-path="url(#clip202)" cx="1942.5" cy="161.12" r="14" fill="#e26f46" fill-rule="evenodd" fill-opacity="1" stroke="#000000" stroke-opacity="1" stroke-width="3.2"/>
<circle clip-path="url(#clip202)" cx="1992.72" cy="161.123" r="14" fill="#e26f46" fill-rule="evenodd" fill-opacity="1" stroke="#000000" stroke-opacity="1" stroke-width="3.2"/>
<circle clip-path="url(#clip202)" cx="2042.93" cy="161.125" r="14" fill="#e26f46" fill-rule="evenodd" fill-opacity="1" stroke="#000000" stroke-opacity="1" stroke-width="3.2"/>
<circle clip-path="url(#clip202)" cx="2093.15" cy="161.128" r="14" fill="#e26f46" fill-rule="evenodd" fill-opacity="1" stroke="#000000" stroke-opacity="1" stroke-width="3.2"/>
<circle clip-path="url(#clip202)" cx="2143.36" cy="161.129" r="14" fill="#e26f46" fill-rule="evenodd" fill-opacity="1" stroke="#000000" stroke-opacity="1" stroke-width="3.2"/>
<circle clip-path="url(#clip202)" cx="2193.57" cy="161.13" r="14" fill="#e26f46" fill-rule="evenodd" fill-opacity="1" stroke="#000000" stroke-opacity="1" stroke-width="3.2"/>
<circle clip-path="url(#clip202)" cx="2243.79" cy="161.131" r="14" fill="#e26f46" fill-rule="evenodd" fill-opacity="1" stroke="#000000" stroke-opacity="1" stroke-width="3.2"/>
<circle clip-path="url(#clip202)" cx="2294" cy="161.131" r="14" fill="#e26f46" fill-rule="evenodd" fill-opacity="1" stroke="#000000" stroke-opacity="1" stroke-width="3.2"/>
<path clip-path="url(#clip200)" d=" M1919.41 322.316 L2283.56 322.316 L2283.56 166.796 L1919.41 166.796  Z   " fill="#ffffff" fill-rule="evenodd" fill-opacity="1"/>
<polyline clip-path="url(#clip200)" style="stroke:#000000; stroke-linecap:butt; stroke-linejoin:round; stroke-width:4; stroke-opacity:1; fill:none" points="   1919.41,322.316 2283.56,322.316 2283.56,166.796 1919.41,166.796 1919.41,322.316    "/>
<circle clip-path="url(#clip200)" cx="2011.67" cy="218.636" r="23" fill="#009af9" fill-rule="evenodd" fill-opacity="1" stroke="#000000" stroke-opacity="1" stroke-width="5.12"/>
<path clip-path="url(#clip200)" d="M2120.32 219.712 Q2121.83 220.221 2123.24 221.888 Q2124.68 223.555 2126.11 226.471 L2130.86 235.916 L2125.83 235.916 L2121.41 227.05 Q2119.7 223.578 2118.08 222.444 Q2116.48 221.309 2113.7 221.309 L2108.61 221.309 L2108.61 235.916 L2103.93 235.916 L2103.93 201.356 L2114.49 201.356 Q2120.42 201.356 2123.33 203.833 Q2126.25 206.309 2126.25 211.309 Q2126.25 214.573 2124.72 216.726 Q2123.22 218.879 2120.32 219.712 M2108.61 205.198 L2108.61 217.467 L2114.49 217.467 Q2117.87 217.467 2119.58 215.916 Q2121.32 214.342 2121.32 211.309 Q2121.32 208.277 2119.58 206.749 Q2117.87 205.198 2114.49 205.198 L2108.61 205.198 Z" fill="#000000" fill-rule="evenodd" fill-opacity="1"/><path clip-path="url(#clip200)" d="M2150.9 204.527 Q2145.81 204.527 2142.8 208.323 Q2139.81 212.12 2139.81 218.67 Q2139.81 225.198 2142.8 228.994 Q2145.81 232.791 2150.9 232.791 Q2155.99 232.791 2158.96 228.994 Q2161.94 225.198 2161.94 218.67 Q2161.94 212.12 2158.96 208.323 Q2155.99 204.527 2150.9 204.527 M2150.9 200.731 Q2158.17 200.731 2162.52 205.615 Q2166.87 210.476 2166.87 218.67 Q2166.87 226.842 2162.52 231.726 Q2158.17 236.587 2150.9 236.587 Q2143.61 236.587 2139.24 231.726 Q2134.88 226.865 2134.88 218.67 Q2134.88 210.476 2139.24 205.615 Q2143.61 200.731 2150.9 200.731 Z" fill="#000000" fill-rule="evenodd" fill-opacity="1"/><path clip-path="url(#clip200)" d="M2174.19 201.356 L2181.16 201.356 L2189.98 224.874 L2198.84 201.356 L2205.81 201.356 L2205.81 235.916 L2201.25 235.916 L2201.25 205.569 L2192.34 229.272 L2187.64 229.272 L2178.73 205.569 L2178.73 235.916 L2174.19 235.916 L2174.19 201.356 Z" fill="#000000" fill-rule="evenodd" fill-opacity="1"/><path clip-path="url(#clip200)" d="M2103.93 261.83 L2108.19 261.83 L2108.19 287.756 L2103.93 287.756 L2103.93 261.83 M2103.93 251.737 L2108.19 251.737 L2108.19 257.131 L2103.93 257.131 L2103.93 251.737 Z" fill="#000000" fill-rule="evenodd" fill-opacity="1"/><path clip-path="url(#clip200)" d="M2138.66 272.108 L2138.66 287.756 L2134.4 287.756 L2134.4 272.247 Q2134.4 268.566 2132.96 266.737 Q2131.53 264.909 2128.66 264.909 Q2125.21 264.909 2123.22 267.108 Q2121.23 269.307 2121.23 273.103 L2121.23 287.756 L2116.94 287.756 L2116.94 261.83 L2121.23 261.83 L2121.23 265.858 Q2122.75 263.52 2124.81 262.362 Q2126.9 261.205 2129.61 261.205 Q2134.07 261.205 2136.36 263.983 Q2138.66 266.737 2138.66 272.108 Z" fill="#000000" fill-rule="evenodd" fill-opacity="1"/><path clip-path="url(#clip200)" d="M2151.36 254.469 L2151.36 261.83 L2160.14 261.83 L2160.14 265.14 L2151.36 265.14 L2151.36 279.214 Q2151.36 282.385 2152.22 283.288 Q2153.1 284.191 2155.76 284.191 L2160.14 284.191 L2160.14 287.756 L2155.76 287.756 Q2150.83 287.756 2148.96 285.927 Q2147.08 284.075 2147.08 279.214 L2147.08 265.14 L2143.96 265.14 L2143.96 261.83 L2147.08 261.83 L2147.08 254.469 L2151.36 254.469 Z" fill="#000000" fill-rule="evenodd" fill-opacity="1"/><path clip-path="url(#clip200)" d="M2187.92 273.728 L2187.92 275.811 L2168.33 275.811 Q2168.61 280.209 2170.97 282.524 Q2173.36 284.816 2177.59 284.816 Q2180.05 284.816 2182.34 284.214 Q2184.65 283.612 2186.92 282.409 L2186.92 286.436 Q2184.63 287.408 2182.22 287.918 Q2179.81 288.427 2177.34 288.427 Q2171.13 288.427 2167.5 284.816 Q2163.89 281.205 2163.89 275.047 Q2163.89 268.682 2167.31 264.955 Q2170.76 261.205 2176.6 261.205 Q2181.83 261.205 2184.86 264.585 Q2187.92 267.941 2187.92 273.728 M2183.66 272.478 Q2183.61 268.983 2181.69 266.899 Q2179.79 264.816 2176.64 264.816 Q2173.08 264.816 2170.92 266.83 Q2168.8 268.844 2168.47 272.501 L2183.66 272.478 Z" fill="#000000" fill-rule="evenodd" fill-opacity="1"/><path clip-path="url(#clip200)" d="M2209.93 265.811 Q2209.21 265.395 2208.36 265.21 Q2207.52 265.001 2206.5 265.001 Q2202.89 265.001 2200.95 267.362 Q2199.03 269.7 2199.03 274.098 L2199.03 287.756 L2194.74 287.756 L2194.74 261.83 L2199.03 261.83 L2199.03 265.858 Q2200.37 263.497 2202.52 262.362 Q2204.67 261.205 2207.75 261.205 Q2208.19 261.205 2208.73 261.274 Q2209.26 261.321 2209.91 261.436 L2209.93 265.811 Z" fill="#000000" fill-rule="evenodd" fill-opacity="1"/><path clip-path="url(#clip200)" d="M2218.52 283.867 L2218.52 297.617 L2214.23 297.617 L2214.23 261.83 L2218.52 261.83 L2218.52 265.765 Q2219.86 263.45 2221.9 262.339 Q2223.96 261.205 2226.8 261.205 Q2231.53 261.205 2234.47 264.955 Q2237.43 268.705 2237.43 274.816 Q2237.43 280.927 2234.47 284.677 Q2231.53 288.427 2226.8 288.427 Q2223.96 288.427 2221.9 287.316 Q2219.86 286.182 2218.52 283.867 M2233.01 274.816 Q2233.01 270.117 2231.06 267.455 Q2229.14 264.77 2225.76 264.77 Q2222.38 264.77 2220.44 267.455 Q2218.52 270.117 2218.52 274.816 Q2218.52 279.515 2220.44 282.2 Q2222.38 284.862 2225.76 284.862 Q2229.14 284.862 2231.06 282.2 Q2233.01 279.515 2233.01 274.816 Z" fill="#000000" fill-rule="evenodd" fill-opacity="1"/></svg>